<svg version="1" xmlns="http://www.w3.org/2000/svg" width="346.667" height="346.667" viewBox="0 0 260.000000 260.000000"><path d="M0 130v130h260V0H0v130zm71.9-17.6c-.3 30.4-.2 37.2.9 36.4.7-.6 9.4-10 19.4-21 17.8-19.5 18.1-19.8 22.1-19.8h4l-1.9 2.2c-1 1.3-7.7 8.5-14.7 16.1-8.7 9.4-12.5 14.2-11.9 15 6.4 8.3 31.2 41.8 31.2 42.2 0 .3-1.7.5-3.9.5-3.9 0-3.9 0-18.1-19-7.8-10.5-14.4-19-14.7-19-.2 0-3.1 2.3-6.4 5.1l-5.9 5.2V184h-7V75h7.2l-.3 37.4zM140.8 97l-.3 21.9 4.3-4.4c4.9-4.9 10.3-7.1 19.7-8.1 12.3-1.3 22.1 3.3 26.6 12.2 2.4 4.8 2.4 5.5 2.7 35.1l.3 30.3H187v-27.3c0-21.2-.3-28.5-1.5-32.3-2.5-8.6-7.5-11.6-19.3-11.6-8.6.1-16.7 3.3-19.8 7.8-4.7 6.9-4.8 7.7-5.2 36.1l-.3 27.3H134V75h7.1l-.3 22z"/></svg>