
<svg xmlns="http://www.w3.org/2000/svg" viewBox="0 0 680.9 207.6"><path fill="#0E2D6D" d="M222.3 44.1c0-6.2 3.2-8.1 8.1-8.1h18.4c10.1 0 22.2 2.3 22.2 15.7 0 5.1-2.8 10-8.5 12.3v.2c6.4 1.7 10.6 6.2 10.6 14.6 0 12.7-10.4 17.9-22.3 17.9h-20.3c-4.9 0-8.1-1.9-8.1-8.1V44.1zm13.8 16.8h11.4c6.5 0 9.6-2.6 9.6-7.4 0-5.8-4.9-7.4-10-7.4h-11v14.8zm0 25.2h11.6c5.4 0 11.5-1.1 11.5-8.1 0-7.3-6.4-8.3-13.1-8.3h-9.9v16.4zM284.5 34.6c3.5 0 6.4 2.9 6.4 6.4 0 3.5-2.9 6.4-6.4 6.4-3.5 0-6.4-2.9-6.4-6.4 0-3.6 2.9-6.4 6.4-6.4zm-6.1 23.1c0-3.3 1.3-6.2 6.2-6.2 4.8 0 6.2 2.9 6.2 6.2v34c0 3.3-1.4 6.2-6.2 6.2-4.8 0-6.2-2.9-6.2-6.2v-34zM296.7 57.2c0-3.7 2.4-5.7 5.6-5.7 3.1 0 5.6 2 5.6 5.7V62h.2c1.4-5.1 4.2-10.4 10.2-10.4 3.9 0 6.7 2.5 6.7 6 0 4.6-3 6.2-6.1 6.2h-2.2c-5 0-7.7 3.5-7.7 13.7v14.3c0 3.3-1.3 6.2-6.2 6.2-4.8 0-6.2-2.9-6.2-6.2V57.2zM327.7 57.7c0-3.7 2.2-6.2 5.8-6.2s5.8 2.4 5.8 6.2v1.6h.2c3.2-4.9 8.6-7.8 14.8-7.8 4.2 0 9.5 1.9 11.8 7.8 3.5-4.8 7.8-7.8 14.5-7.8 8.5 0 15.3 3.9 15.3 14.9v25.2c0 3.3-1.4 6.2-6.2 6.2-4.8 0-6.2-2.9-6.2-6.2V69.5c0-4.4-1.9-7.9-6.7-7.9-4.7 0-8.9 3.8-8.9 9.5v20.5c0 3.3-1.3 6.2-6.2 6.2-4.8 0-6.2-2.9-6.2-6.2V69.5c0-4.4-1.9-7.9-6.7-7.9-4.7 0-8.9 3.8-8.9 9.5v20.5c0 3.3-1.3 6.2-6.2 6.2-4.8 0-6.2-2.9-6.2-6.2V57.7zM407.5 34.6c3.5 0 6.4 2.9 6.4 6.4 0 3.5-2.9 6.4-6.4 6.4-3.5 0-6.4-2.9-6.4-6.4 0-3.6 2.8-6.4 6.4-6.4zm-6.2 23.1c0-3.3 1.3-6.2 6.2-6.2 4.8 0 6.2 2.9 6.2 6.2v34c0 3.3-1.3 6.2-6.2 6.2-4.8 0-6.2-2.9-6.2-6.2v-34zM420.7 57.7c0-3.7 1.7-6.2 5.6-6.2 3.9 0 5.6 2.4 5.6 6.2v1.6h.2c3.5-4.6 7.9-7.8 14.9-7.8 7.4 0 15.5 3.7 15.5 16.2v23.9c0 3.3-1.3 6.2-6.2 6.2-4.8 0-6.2-2.9-6.2-6.2V70.1c0-5-2.4-8.5-7.8-8.5-4.3 0-9.4 3.5-9.4 9.7v20.3c0 3.3-1.3 6.2-6.2 6.2-4.8 0-6.2-2.9-6.2-6.2V57.7zM510.5 93.1c0 14.8-9.1 21.7-21.9 21.7-9.4 0-18.5-4.2-18.5-10.2 0-3 2.4-5.2 5.1-5.2 5.1 0 6.2 6.3 13.1 6.3 7.5 0 10.5-3.8 10.5-13.5v-2.5h-.2c-2.2 3.2-7 5.9-11.9 5.9-13 0-19.7-8.4-19.7-20.6 0-15.9 8.9-23.4 19.3-23.4 6 0 10.7 2.8 13 7.3h.2v-1.5c0-3.8 1.9-5.8 5.6-5.8 3.8 0 5.6 2 5.6 5.8v35.7zM489 86.4c5.5 0 9.7-3.6 9.7-12.4 0-8.9-3.4-12.9-9.1-12.9-7.9 0-10.4 5.8-10.4 13.4.1 5.7 2.9 11.9 9.8 11.9zM516.9 41.1c0-4 2.4-6.2 6.2-6.2 3.7 0 6.2 2.1 6.2 6.2V58h.2c2.4-3.2 6.7-6.5 13.7-6.5 7.4 0 15.5 3.7 15.5 16.2v23.9c0 3.3-1.3 6.2-6.2 6.2-4.8 0-6.2-2.9-6.2-6.2V70.1c0-5-2.4-8.5-7.8-8.5-4.3 0-9.4 3.5-9.4 9.7v20.3c0 3.3-1.3 6.2-6.2 6.2-4.8 0-6.2-2.9-6.2-6.2V41.1zM605.9 84.8c0 5.1 1.3 6.3 1.3 8.3 0 2.8-2.6 4.7-5.6 4.7-5.3 0-7.1-3.4-7.2-7.2-4.8 5.3-10.4 7.2-16.9 7.2-7 0-13.9-4.8-13.9-12.6 0-10.2 7.8-13.1 17.2-14.2l7.5-.8c3-.3 5.3-1 5.3-4.6 0-3.5-3.6-5.1-7.8-5.1-9.1 0-9.4 6.7-14.2 6.7-3.1 0-5.2-2.2-5.2-4.7 0-4.9 6.9-11.1 19.6-11.1 11.8 0 20 3.8 20 12.6v20.8zm-12.3-8.9c-1.3 1.3-3.9 1.7-5.3 1.9l-4.5.7c-5.1.8-7.9 2.4-7.9 6.1 0 2.8 2.6 5.1 6.8 5.1 6.7 0 10.9-4.4 10.9-8.9v-4.9zM612.6 57.7c0-3.7 2.2-6.2 5.8-6.2 3.6 0 5.8 2.4 5.8 6.2v1.6h.2c3.2-4.9 8.6-7.8 14.8-7.8 4.2 0 9.5 1.9 11.8 7.8 3.5-4.8 7.8-7.8 14.5-7.8 8.5 0 15.3 3.9 15.3 14.9v25.2c0 3.3-1.3 6.2-6.2 6.2-4.8 0-6.1-2.9-6.1-6.2V69.5c0-4.4-1.9-7.9-6.7-7.9-4.7 0-8.9 3.8-8.9 9.5v20.5c0 3.3-1.3 6.2-6.2 6.2-4.8 0-6.2-2.9-6.2-6.2V69.5c0-4.4-1.9-7.9-6.7-7.9-4.7 0-8.9 3.8-8.9 9.5v20.5c0 3.3-1.3 6.2-6.1 6.2s-6.2-2.9-6.2-6.2V57.7z"/><path fill="#0099D8" d="M235.9 112.7c1.2-3.1 3.4-4.2 6.7-4.2h3.3c3.1 0 5.9.8 7.4 5.1L270 160c.5 1.3 1.3 3.8 1.3 5.3 0 3.4-2.9 6.1-6.5 6.1-3 0-5.2-1.1-6.2-3.8l-3.5-10.1h-22.2l-3.6 10.1c-.9 2.7-2.9 3.8-6.2 3.8-3.8 0-6.4-2.4-6.4-6.1 0-1.5.8-4 1.3-5.3l17.9-47.3zm8.3 10.8h-.2l-8.2 24.4H252l-7.8-24.4zM280.5 108.2c3.5 0 6.4 2.9 6.4 6.4 0 3.5-2.9 6.4-6.4 6.4-3.5 0-6.4-2.9-6.4-6.4 0-3.6 2.8-6.4 6.4-6.4zm-6.2 23.1c0-3.3 1.3-6.2 6.1-6.2s6.2 2.9 6.2 6.2v34c0 3.3-1.3 6.2-6.2 6.2-4.8 0-6.1-2.9-6.1-6.2v-34zM292.7 130.8c0-3.7 2.4-5.7 5.6-5.7 3.1 0 5.6 2 5.6 5.7v4.7h.2c1.4-5.1 4.2-10.4 10.2-10.4 3.9 0 6.7 2.5 6.7 6 0 4.6-3 6.2-6.1 6.2h-2.2c-5 0-7.7 3.5-7.7 13.7v14.3c0 3.3-1.3 6.2-6.2 6.2-4.8 0-6.2-2.9-6.2-6.2v-34.5zM323.7 130.9c0-3.8 1.8-5.8 5.6-5.8 3.6 0 5.6 2 5.6 5.8v1.9h.2c2-5.2 7-7.8 13-7.8 10.3 0 19.3 7.5 19.3 23.4 0 11.8-6 22.8-19 22.8-5.6 0-9.9-2.3-12.1-6.2h-.3v16.4c0 4-2.4 6.1-6.2 6.1-3.7 0-6.2-2.1-6.2-6.1v-50.5zm21.4 3.8c-7.2 0-9.9 6.4-9.9 13.4 0 6.3 2.4 13.7 9.9 13.7 7.8 0 9.8-7.9 9.8-13.7 0-7.2-3.2-13.2-9.8-13.4zM393.4 125.1c14.8 0 22.8 10.1 22.8 23.1 0 12.3-6 23.2-22.8 23.2s-22.8-10.9-22.8-23.2c0-13 8-23.1 22.8-23.1zm0 37.2c7.3 0 10.4-6.6 10.4-14.1 0-8-3.3-14-10.4-14-7.2 0-10.4 6-10.4 14 0 7.5 3.1 14.1 10.4 14.1zM419.9 130.8c0-3.7 2.4-5.7 5.6-5.7 3.1 0 5.6 2 5.6 5.7v4.7h.2c1.4-5.1 4.2-10.4 10.2-10.4 3.9 0 6.7 2.5 6.7 6 0 4.6-3 6.2-6.1 6.2h-2.2c-5 0-7.7 3.5-7.7 13.7v14.3c0 3.3-1.3 6.2-6.2 6.2-4.8 0-6.2-2.9-6.2-6.2v-34.5zM456.8 134.3h-2.1c-3.5 0-4.9-1.3-4.9-4s1.4-4 4.9-4h2.1v-7.5c0-4 2.4-6.2 6.2-6.2 3.7 0 6.2 2.1 6.2 6.2v7.5h3.7c3.6 0 5.6 1.1 5.6 4s-1.9 4-5.6 4h-3.7v24.6c0 1.9 1 2.9 3.2 2.9h1.8c2.7 0 4.3 1.5 4.3 4.1 0 3.5-3 5.5-8.9 5.5-8.9 0-12.6-3.7-12.6-11v-26.1z"/><path fill="#0E2D6D" d="M98.3 189.7c-49.1 0-89-39.9-89-89s39.9-89 89-89 89 39.9 89 89c0 49-39.9 89-89 89zm0-158.3c-38.2 0-69.2 31.1-69.2 69.2 0 38.2 31.1 69.2 69.2 69.2s69.2-31.1 69.2-69.2-31-69.2-69.2-69.2z"/><path fill="none" d="M158.3 93c0-40.5-31.4-73.8-71.1-76.9C60 27 40.7 53.6 40.7 84.6c0 40.6 33 73.7 73.7 73.7 3 0 5.9-.2 8.7-.5 21.1-13.9 35.2-37.7 35.2-64.8z"/><path fill="none" d="M162.2 93c0 25.4-11.8 48.2-30.2 63.1 32.1-7.9 56-37 56-71.5 0-40.6-33-73.7-73.7-73.7-6.4 0-12.6.8-18.6 2.4 37.8 6.9 66.5 40 66.5 79.7zM29.8 84.6c0-26.8 12.6-50.8 32.1-66.3C28.6 26.9 4 57.1 4 93c0 42.5 34.6 77.1 77.1 77.1 6.4 0 12.7-.8 18.7-2.3-39.7-6.8-70-41.5-70-83.2z"/><path fill="none" d="M114.4 158.3c3 0 5.9-.2 8.7-.5-7.1 4.6-14.9 8.1-23.3 10.2-35.3-6.2-63.1-34.2-68.9-69.6-2.8 7.7-4.3 16.1-4.3 24.7 0 40.6 33 73.7 73.7 73.7 40.6 0 73.7-33.1 73.7-73.7s-33-73.7-73.7-73.7c-24.4 0-46 11.9-59.4 30.2-.1 1.7-.2 3.4-.2 5.1 0 40.5 33 73.6 73.7 73.6z"/><path fill="#94D8E9" d="M99.8 167.9c8.4-2.1 16.2-5.6 23.3-10.2-2.9.3-5.8.5-8.7.5-40.6 0-73.7-33-73.7-73.7 0-1.7.1-3.4.2-5.1-4.2 5.7-7.6 12-10 18.8 5.8 35.5 33.6 63.5 68.9 69.7z"/><path fill="#0099D8" d="M100.3 38.4c-20.9 0-40.1 7.7-54.9 20.3-5.8 4.9-10.9 10.6-15.1 16.9-9.2 13.5-14.5 29.8-14.5 47.4 0 46.6 37.9 84.6 84.6 84.6 46.6 0 84.6-37.9 84.6-84.6-.1-46.7-38.1-84.6-84.7-84.6zm0 158.3c-40.6 0-73.7-33.1-73.7-73.7 0-8.7 1.5-17 4.3-24.7 2.4-6.8 5.8-13.1 10-18.8C54.3 61.2 76 49.3 100.3 49.3c40.6 0 73.7 33 73.7 73.7 0 40.6-33.1 73.7-73.7 73.7z"/><path fill="#94D8E9" d="M114.4 0C98 0 82.7 4.7 69.8 12.7c-2.7 1.7-5.4 3.6-7.9 5.6-17.3 13.8-29.2 34.2-31.6 57.3 4.3-6.3 9.4-12 15.1-16.9 7.3-19.4 22.5-34.9 41.7-42.6 2.8-1.1 5.7-2.1 8.7-2.9 5.9-1.5 12.2-2.4 18.6-2.4 40.6 0 73.7 33 73.7 73.7 0 34.5-23.9 63.6-56 71.5-6.7 5.4-14.3 9.8-22.6 12.9 1.6.1 3.2.2 4.9.2 46.6 0 84.6-37.9 84.6-84.6C198.9 37.9 161 0 114.4 0z"/><path fill="#A4C0E5" d="M95.8 13.3c-3 .8-5.8 1.7-8.7 2.9 39.7 3.1 71.1 36.4 71.1 76.9 0 27.1-14 50.9-35.2 64.7-7.1 4.6-14.9 8.1-23.3 10.2-6 1.5-12.2 2.3-18.7 2.3-42.4-.1-77-34.7-77-77.3 0-35.9 24.7-66.2 57.9-74.7 2.5-2 5.2-3.9 7.9-5.6C30.4 18.3 0 52.2 0 93c0 44.7 36.4 81.1 81.1 81.1 10 0 19.5-1.8 28.4-5.1 8.2-3.1 15.8-7.5 22.6-12.9 18.4-14.9 30.2-37.6 30.2-63.1-.1-39.7-28.8-72.8-66.5-79.7z"/></svg>
