
<svg id="Layer_1" xmlns="http://www.w3.org/2000/svg" viewBox="0 0 493.7 98.2"><style>.st0{fill:#e62730}.st1{fill:#134687}</style><path class="st0" d="M2.3 33.2V7.9c0-2.9-.2-5-2.3-6.8h10.7C8.6 2.9 8.4 5 8.4 7.9V35c3.1.5 5.5.7 7.2.7 3.9 0 7.4-1 10.8-3.3l-2.7 7.7H0c2.1-1.9 2.3-3.9 2.3-6.9M36.8 2c1.8 0 3.4 1.5 3.4 3.5S38.7 9 36.8 9c-2 0-3.5-1.6-3.5-3.5S34.9 2 36.8 2m4.9 38.1h-9.2c1.4-1.3 2-2.8 2-5.1V18c0-2.3-.5-3.9-2-5.2 2.9-.1 5.3-.2 7.2-.6V35c0 2.3.5 3.9 2 5.1m20.2.9c-3.6-1.1-5-3.6-6.7-7.5L49 18.7c-.9-2-1.8-4-4.2-5.9h.9c3.1 0 5.2-.3 6.3-1l8.6 21.8 6.7-14.8c.5-1.2.9-2.1.9-2.9 0-1-.6-1.9-1.8-3h8.2L61.9 41zm22-15.2H105c-.1-8.9-5.1-14.2-12.8-14.2-8.4 0-14.4 6.1-14.4 14.9 0 8.5 6.6 14.6 15.7 14.6 2.6 0 5.4-.6 8.5-1.8l3-5.3c-3.6 1.9-6.8 2.9-9.9 2.9-6.4.1-10.9-4.1-11.2-11.1m.4-3.9c.5-4.1 3.4-6.6 7.6-6.6 3.8 0 6.8 2.7 7 6.6H84.3zM124 17c-3.9 0-6.1 2.7-6.1 7.8V35c0 2.3.5 3.9 2 5.1h-9.2c1.4-1.3 2-2.8 2-5.1V18c0-2.3-.5-3.9-2-5.2h.6c1.9 0 4-.2 6.3-.6l.4 4.4c1.7-2.9 3.7-4.3 6.5-4.3.7 0 1.5.1 2.4.3V18c-.9-.7-1.8-1-2.9-1m9.8 30V18c0-2.3-.5-3.9-2-5.2h.7c1.8 0 3.9-.2 6.2-.6l.2 4.4c2.8-3 6.2-4.6 10-4.6 7.5 0 13.5 6 13.5 13.9 0 5.2-2.1 9.6-5.8 12.3-2.5 1.9-5.3 2.8-8.4 2.8-1.4 0-2.8-.2-4.3-.5l-3.4-5c2.3 1 4.3 1.6 6 1.6 6.1 0 9.8-3.7 9.8-10.2 0-6.3-4-10.6-9.2-10.6-2.2 0-4.3.8-5.9 2.3-2.1 2-2.2 4.7-2.2 8.6V47c0 2.3.5 3.9 2 5.1h-9.3c1.6-1.3 2.1-2.8 2.1-5.1m33.8-20.2c0 3.7 1.5 7.4 4.3 10.1 2.9 2.9 6.3 4.1 10.6 4.1 4.2 0 8.2-1.6 11.1-4.2 3-2.8 4.6-6.5 4.6-10.7 0-3.8-1.5-7.4-4.3-10.1-2.9-2.9-6.3-4.2-10.6-4.2-4.2 0-8.2 1.6-11.1 4.3-3 2.8-4.6 6.5-4.6 10.7m6.1-1.2c0-5.5 3.7-9.7 9-9.7 5.5 0 9.5 4.6 9.5 11.1 0 6-3.7 10.1-9 10.1-5.6 0-9.5-4.6-9.5-11.5m29.6 1.2c0 3.7 1.6 7.4 4.3 10.1 2.9 2.9 6.3 4.1 10.6 4.1 4.2 0 8.2-1.6 11-4.2 3-2.8 4.6-6.5 4.6-10.7 0-3.8-1.5-7.4-4.3-10.1-2.9-2.9-6.3-4.2-10.6-4.2-4.2 0-8.2 1.6-11.1 4.3-2.9 2.8-4.5 6.5-4.5 10.7m6.1-1.2c0-5.5 3.7-9.7 9-9.7 5.5 0 9.5 4.6 9.5 11.1 0 6-3.7 10.1-9 10.1-5.6 0-9.5-4.6-9.5-11.5m39 14.5h-9.2c1.4-1.3 2-2.8 2-5.1V5.8c0-2.3-.5-3.9-2-5.1h.6c1.6 0 3.7-.3 6.6-.7v35c.1 2.3.6 3.9 2 5.1"/><path class="st1" d="M260.7 49.2c-2 1.9-5.5 3.3-10.1 3.9 6.1-4.3 6.8-7.8 6.8-13.7V7.9c0-2.9-.2-5-2.3-6.8h10.7c-2.1 1.8-2.3 3.9-2.3 6.8v31.5c-.1 4.4-.1 7.2-2.8 9.8m9.4-22.4c0 3.7 1.6 7.4 4.3 10.1 2.9 2.9 6.3 4.1 10.6 4.1 4.2 0 8.2-1.6 11.1-4.2 3-2.8 4.6-6.5 4.6-10.7 0-3.8-1.5-7.4-4.3-10.1-2.9-2.9-6.3-4.2-10.6-4.2-4.2 0-8.2 1.6-11.1 4.3-3 2.8-4.6 6.5-4.6 10.7m6.1-1.2c0-5.5 3.7-9.7 9-9.7 5.5 0 9.5 4.6 9.5 11.1 0 6-3.7 10.1-9 10.1-5.6 0-9.5-4.6-9.5-11.5m36.9 14.5h-9.2c1.4-1.3 2-2.8 2-5.1V5.8c0-2.3-.5-3.9-2-5.1h.5c1.6 0 3.8-.2 6.6-.7v16.5c2.8-2.9 5.5-4.4 8.8-4.4 5.9 0 10.2 3.9 10.2 10V35c0 2.3.5 3.9 2 5.1h-9.3c1.4-1.3 2-2.8 2-5.1v-9.8c0-5.8-1.9-8.5-6.7-8.5-5.1 0-6.9 2.5-6.9 8.1V35c.1 2.3.6 3.9 2 5.1m34.7 0h-9.2c1.4-1.3 2-2.8 2-5.1V18c0-2.3-.5-3.9-2-5.2h.6c1.9 0 4-.2 6.3-.6l.2 4.4c2.8-2.9 5.5-4.4 8.8-4.4 5.9 0 10.2 3.9 10.2 10V35c0 2.3.5 3.9 2 5.1h-9.3c1.4-1.3 2-2.8 2-5.1v-9.8c0-5.8-1.9-8.5-6.7-8.5-5.1 0-6.9 2.5-6.9 8.1V35c0 2.3.6 3.9 2 5.1M3.6 79.3V54.1c0-2.9-.2-5-2.3-6.8H12c-2.1 1.8-2.3 3.9-2.3 6.8v27.1c3 .5 5.5.7 7.2.7 3.9 0 7.4-1 10.8-3.3L25 86.2H1.3c2.1-1.9 2.3-3.9 2.3-6.9m32.3-7.4H57c-.1-8.9-5.1-14.2-12.8-14.2-8.3 0-14.5 6.1-14.5 14.8 0 8.5 6.6 14.6 15.7 14.6 2.6 0 5.4-.6 8.5-1.8L57 80c-3.6 1.9-6.9 2.9-9.9 2.9-6.5.2-11-4-11.2-11m.4-3.9c.5-4.1 3.4-6.6 7.6-6.6 3.8 0 6.8 2.7 7 6.6H36.3zm34.2 18.2h-9.2c1.4-1.3 2-2.8 2-5.1v-17c0-2.3-.5-3.9-2-5.2h.6c1.9 0 4-.2 6.3-.6l.2 4.4c2.8-2.9 5.5-4.4 8.8-4.4 5.9 0 10.2 3.9 10.2 10v12.8c0 2.3.5 3.9 2 5.1h-9.3c1.4-1.3 2-2.8 2-5.1v-9.8c0-5.8-1.9-8.5-6.7-8.5-5.1 0-6.9 2.5-6.9 8.1v10.2c0 2.3.5 3.9 2 5.1m32.1 0h-9.2c1.4-1.3 2-2.8 2-5.1v-17c0-2.3-.5-3.9-2-5.2h.6c1.9 0 4-.2 6.3-.6l.2 4.4c2.8-2.9 5.5-4.4 8.8-4.4 5.9 0 10.2 3.9 10.2 10v12.8c0 2.3.5 3.9 2 5.1h-9.3c1.4-1.3 2-2.8 2-5.1v-9.8c0-5.8-1.9-8.5-6.7-8.5-5.1 0-6.9 2.5-6.9 8.1v10.2c.1 2.3.6 3.9 2 5.1m22.8-13.3c0 3.7 1.6 7.4 4.3 10.1 2.9 2.9 6.3 4.1 10.6 4.1 4.2 0 8.2-1.6 11.1-4.2 3-2.8 4.5-6.5 4.5-10.7 0-3.8-1.5-7.4-4.3-10.1-2.9-2.9-6.3-4.2-10.6-4.2-4.2 0-8.2 1.6-11 4.3-3 2.8-4.6 6.5-4.6 10.7m6-1.2c0-5.5 3.7-9.7 9-9.7 5.5 0 9.5 4.6 9.5 11.1 0 6-3.7 10.1-9 10.1-5.6 0-9.5-4.6-9.5-11.5m37.7 14.5h-9.2c1.4-1.3 2-2.8 2-5.1v-17c0-2.3-.5-3.9-2-5.2h.6c1.9 0 4-.2 6.3-.6l.2 4.4c2.8-2.9 5.5-4.4 8.8-4.4 5.9 0 10.3 3.9 10.3 10v12.8c0 2.3.5 3.9 2 5.1h-9.3c1.4-1.3 2-2.8 2-5.1v-9.8c0-5.8-1.9-8.5-6.7-8.5-5.1 0-6.9 2.5-6.9 8.1v10.2c-.1 2.3.4 3.9 1.9 5.1"/><path class="st0" d="M195.9 80.9l3.7-9.3h14.6l3.3 9c.4 1.1.8 2 .8 3 0 .8-.6 1.4-1.7 2.5h11.2c-2.7-2.3-3.6-4.3-4.4-6.3L211 47.2h-8.9c.9.7 1.4 1.4 1.4 2.4 0 .7-.2 1.8-.7 2.9l-11 27.9c-1.1 2.8-2.2 4.7-3.9 5.9h9.2c-1.1-1.1-1.7-2-1.7-2.8 0-.9.2-1.8.5-2.6m5.3-13.2l6-15.1 5.5 15.1h-11.5zm31.1-19.6c1.8 0 3.4 1.5 3.4 3.5s-1.5 3.5-3.4 3.5c-2 0-3.5-1.6-3.5-3.5s1.6-3.5 3.5-3.5m4.8 38.1H228c1.4-1.3 2-2.8 2-5.1v-17c0-2.3-.5-3.9-2-5.2 2.9-.1 5.3-.2 7.2-.6v22.9c-.1 2.2.5 3.8 1.9 5m17.7-23.1c-3.9 0-6.1 2.7-6.1 7.8v10.2c0 2.3.5 3.9 2 5.1h-9.2c1.4-1.3 2-2.8 2-5.1v-17c0-2.3-.5-3.9-2-5.2h.6c1.9 0 4-.2 6.3-.6l.4 4.4c1.7-2.9 3.7-4.3 6.5-4.3.7 0 1.5.1 2.4.3V64c-.9-.6-1.8-.9-2.9-.9m8.3 30v-29c0-2.3-.5-3.9-2-5.2h.8c1.8 0 3.8-.2 6.2-.6l.2 4.4c2.8-3.1 6.2-4.6 10-4.6 7.5 0 13.5 6 13.5 13.9 0 5.2-2.1 9.5-5.8 12.3-2.5 1.9-5.3 2.8-8.4 2.8-1.4 0-2.8-.2-4.3-.5l-3.4-4.9c2.3 1 4.3 1.6 6 1.6 6.1 0 9.8-3.7 9.8-10.2 0-6.3-4-10.6-9.2-10.6-2.2 0-4.3.8-5.9 2.3-2.1 2-2.2 4.7-2.2 8.6v19.9c0 2.3.5 3.9 2 5.1h-9.3c1.5-1.5 2-3 2-5.3m32.4-20.2c0 3.7 1.6 7.4 4.3 10.1 2.9 2.9 6.3 4.1 10.6 4.1 4.2 0 8.2-1.6 11.1-4.2 3-2.8 4.6-6.5 4.6-10.7 0-3.8-1.5-7.4-4.3-10.1-2.9-2.9-6.3-4.2-10.6-4.2-4.2 0-8.2 1.6-11 4.3-3.1 2.8-4.7 6.5-4.7 10.7m6.1-1.2c0-5.5 3.7-9.7 9-9.7 5.5 0 9.5 4.6 9.5 11.1 0 6-3.7 10.1-9 10.1-5.6 0-9.5-4.6-9.5-11.5m41.8-8.6c-3.9 0-6.1 2.7-6.1 7.8v10.2c0 2.3.5 3.9 2 5.1H330c1.4-1.3 2-2.8 2-5.1v-17c0-2.3-.5-3.9-2-5.2h.6c1.9 0 4-.2 6.3-.6l.4 4.4c1.7-2.9 3.7-4.3 6.5-4.3.8 0 1.5.1 2.4.3V64c-.9-.6-1.7-.9-2.8-.9m5.1-.2v-2c4.4-.4 7.2-4.2 7.4-10.7h1.7V59h8.1v5c-1-.9-2.4-1.1-4.2-1.1h-3.9v13.3c0 4.8 1.5 7.1 5 7.1.7 0 1.6-.1 2.5-.4l-2.8 4c-.6.1-1.2.1-1.8.1-5.5 0-8.3-2.8-8.3-8.2V62.9h-3.7z"/><path class="st1" d="M478.7 59.5l-.1-.2.1.1c.1-.3.1-.1 0 .1zm-28.3-17.6c-1.1.4-1.4 2.1-2.8 1.6-.6-.2-1.6-.2-1.8-1.1-.8-.8-.5-1.9-.7-2.9 0-1.1.9-1.7 1-2.7.4-.7 1-.8 1.6-1.1l1.4-.9c.8.4.9 1.5 1.5 2.2-.2.5.1 1.1.2 1.6-.2 1 .3 2.4-.4 3.3m37 5.3c-.1-.7-.3-1.4-.2-2.1-.4-2.3-.6-3.7-.8-6.1-.6-1.4-.6-2.9-1.1-4-.5-2.8-1.8-5.4-3.4-7.9-.2-.7-.8-1.4-1.4-1.9-.3-.9-.8-1.7-1.6-2.4-.1-1.1-1.1-1.3-1.8-2-1-.7-1.1-2.4-2.6-2.5-1.1-1.1-2.2-2.5-3.7-3.1-.3-1.1-1.6-1-2-2.1-1.6-.4-2.5-2.2-4-2.8-1.5-.7-2.1-3-4-2.4-1.1 1.7.3 3.7.1 5.3.3.9.8 1.7.5 2.7-1.6.2-1.4-1.8-2.7-2.5-.3-1-1.1-2-1.9-2.8-1.1-1-2.6 0-3.7-1-.5-.8-1.3-1-1.9-1.5-.9-.2-.9-1.6-2-1.2-.5-.9-1.4-1.1-2.3-1.2-.2-.5-.7-.5-1.1-.7-.6.5-1.3.5-1.7 1.2-.2.3 0 .6-.2.9-.3 1.4.2 2.8.2 4.1-.5 2.1 1.5 4 .4 6.2-.5.5-.5 1.3-.8 1.9.3.9-.3 2.3.6 3 1.1.2.9-1 1.4-1.6-.2-.7-.1-1.1.4-1.5.2-.2.6-.2.8 0 .9.9 1.4 2 1.8 3.2.1.5.6 1 .3 1.4.1.6.6 1.3 1.2 1.7l.5 2.2c.7 1.4 1.5 2.8 1.4 4.4 1.1 1.7.6 3.9 1.1 5.8l-.2.2c-.4-.8-.5-1.8-1.3-2.3 0-.3 0-.6-.2-.9-1.4-1.1-1.1-3.2-2.9-4-.4-.2-.9-.6-1.2.1-.3 1.1.8 1.7 1.1 2.6-.1.3-.4 0-.6 0-1 .3-2 .5-2.9 1.1-.2.3-.5.7-.8.9-.9.1-2.1-.3-3.1-.1-1.2-.3-2.1.3-3.2.3-.8.6-1.6 0-2.5.2-.4.2-.3.5-.3.9-.1 1 1.1 1.1 1.6 1.6-.3.8-.3 1.6-.2 2.5.9 1.1.6 2.7.5 4 .4 1 0 2.1.5 3.1.6.9-.4 1.4-.1 2.4.6 1.2-.4 2.8.6 3.8l.1 1.2c-.2 1.5.6 2.9-.1 4.2-.7 1.1-1.6.8-2.6.7-1.3-.5-2.8-.8-4.1-1.6-.9 0-1.8-.3-2.7-.5-.6.4-1.7.2-1.7 1.2.2 1.5 1.5.5 2.5.8l2.8 1.5.7.2c1.5.7 3.4 1 5.1 1 .7-.6 2.2-.7 2.3-2 .1-1.1.5-2.7.4-3.9.4-.9-.4-1.4-.4-2.3.1-.7-.6-1.1-.2-1.8-.7-1.1 0-2.6-.5-3.7-.2-1.4.3-2.9-.4-4.3-.1-.8-.3-1.8-.3-2.5.3-.7 0-1.8 0-2.5-.2-.7-.6-1.2-.9-1.9.2-.2.3-.2.5-.3.6-.6 1.3-.4 2-.5.7.5 1.7-.1 2.3.5.7.5-.2 1.2-.2 1.7 0 1.6 0 3.5.8 4.9.9.7 1.8 1.7 2.9 1.6.8-.4 1.7 0 2.5-.2 1.5.2 2-1.6 2.8-2.4.9-.9 1-2.3 1.7-3.4.6 2.4.9 5 .7 7.7.4.9.7 1.9.5 3l.7 1.5c-.7 2.1.2 3.8.3 5.7l.4.6c.3 1.6 1 3.4.4 5 0 .9.3 1.8-.1 2.6.3.4.2.9.3 1.4 0 .9.3 1.7.2 2.5.5.7-.3 1.4-.1 2.1-.3.5.1 1.4-.2 1.9.2 1.5.3 3.8.1 5.6-.3.6 0 1.2.1 1.7.2.9.3 1.8.2 2.9.4.5.6 1.3 1.4 1.2 1.4-.3 1.7-2 2.2-3.1.1-.4 0-.6.2-.9.2-1.6 1.2-3 .9-4.7.5-.5.5-1.3.3-1.9.3-.7.5-1.2.3-2l-.1-.1c.1-.4.1-.7.2-1.1 0-.2-.3-.5-.1-.7-.4-.5.2-1.1.1-1.7-.2-1.1.1-2-.3-3-.3-.7.1-1.5-.1-2.1.1-1.1-.3-2.1-.5-3.2.3-1.4-.5-2.6-.2-3.7-.6-1.9-.4-4.2-1.2-6.1-.1-.4.1-.8-.2-1.1-.2-.9-.4-2.4-1.6-2.7-.5.2-.2.8-.4 1.2.6 1.3 1 2.5 1.3 3.8.4 3 .9 5.7 1 8.8-.5.5.1 1 0 1.6.2 4.5.3 9.1-.8 13.3-.3-.2-.5 0-.8 0 0-.5-.2-1-.1-1.6.3-1 0-2.2.3-3.3-.1-.5-.3-.7-.2-1.2.4-1.3-.4-2.4-.7-3.6-.3-1.1.5-2.3.2-3.4.1-1.3 0-2.4-.2-3.6-.6-.6 0-1.6-.5-2.4-1.1-1.6-.3-3.7-.6-5.5-.4-1.6-.5-3.1-.7-4.6-.6-1.7-.4-3.4-.7-5-.9-1.4.2-3.1-.9-4.4 0-1.4-.7-2.5-.6-3.9 0-.4.1-.9-.2-1.4 0-1.7-.8-3-.8-4.7-.8-.9-.5-2.3-1.4-3.2-.8-.8-.1-2.1-1.3-2.7-.4-.5-.1-1.4-.6-1.9-1.1-.2-.8-1.5-1.8-1.8-1.1-1.4-1.4-3.1-2.2-4.8.4-.7-.4-1.2-.2-2.1-.5-.9-.1-1.9 0-2.8.1-.4.5-.6.9-.7 1.9.5 3.3 1.9 4.7 3.3 1 .2 1.6 1 2.3 1.8 1.6.9 2.6 2.9 4.1 4.2 1.6 1.8 1 4.6 2.9 6.1.3.2.7.3.9 0 .6-1-.9-1.4-.5-2.4 2.1.9 1.9 3.5 3.6 4.8.3.8.8 1.5 1.2 2.2 1 .9 1.1 2.1 1.8 3.2.3.3.9.2 1.1-.2.8-.1.8.9 1.4 1.3-.1.9.4 1.5.9 2.2.2.2.7.2.8-.2.3-.5 0-1.1-.2-1.6.6-1.9-1.9-2.7-2.1-4.5-.2-.4.2-.8-.2-1.2-.2-1-1.4-1.8-1.9-2.7-1.1-.9-.8-2.6-2.2-3-.3-1-.8-2-1.6-2.9-.6-.8-.1-1.7-.5-2.5-.6-1.1-.5-2.3-.6-3.5-.1-.3.2-.1.4-.2 3.1 2.2 6.1 5.1 9.4 7.3.4 1 1.6 1.2 2.1 2.1 2.1 1 2.6 3.4 4.3 4.7 1.2 2 2.4 4.1 3.2 6.3 1.3 2.1 1.3 4.7 2.2 6.9.6 1 0 2.4.5 3.4.2 2.5-.1 5-.1 7.4-1 2.7-.3 5.5-1.4 8.1-.1 1-.8 2.7-1 3.4-.5.5-.6-.6-.6-.6-.2-.3-.1-.2-.1-.5-.2-.2-.5-1.3-.6-2-.4-2.1-.1-4.1-1.8-5.7-.3 0-.9 0-1.1.5-.4-.5-.1-.9-.3-1.4-.5-.7-.6-1.8-1.3-2.5-.2-.3-.1-.7 0-1.1 0-1.1-.7-2.1-.6-3.2.9-1.5-.2-3-.9-4.2.1-1.6-.7-2.9-1.4-4.1-.4-.6-.4-1.7-1.4-1.6-.3.1-.6.4-.7.7 0 .9.5 1.8.9 2.6.7.9-.4 1.3-.2 2.1.6.8.7 1.6.8 2.5.8 1.6.2 3.6 1 5.2l.2 4.9c.4 1.6-.5 3.5-.3 5-.2 1.9-1.1 3.6-1.7 5.3-.3.4-.6.2-.9-.1-.4-1.4-.4-3.4.2-4.9.4-1.5-.2-3 .2-4.4.7-1.5-.1-3.2.6-4.7.6-1.2-.8-2.3 0-3.4-.4-1.6 0-3.2-.6-4.8.2-1-.2-2.2-.2-3.2-.5-.7-.6-1.2-.7-2.1-.3-.5-.9-1.1-.6-1.8.3-.7-.4-1.2-.7-1.8-.4-.4-.8.2-1.1.1-.2.1-.3.3-.3.5.6 1 .4 2 .5 3.1 1.3 1.2.8 3.2 1.1 4.7.3 1.4 0 2.9.8 4.1-.2.9.2 1.9 0 2.7-.2 1.7-.1 3.2-.6 4.8-.3 2.4-.6 4.7-.8 7.1-.6 2.2-.8 4.9.2 7 .4.6.3 1.5 1 2 .5.3.9.5 1.4.2.3-.5 1.1-.4 1.1-1.1 1.3-1.5 2.2-2.8 3.1-4.6-.1-.3 0-.7.3-.9.4-.9.4-2.3.9-3.3l.1.1c.6 2 1.2 4 1.3 6.3.1 3 .8 6.5 0 9.4 0 3.6-.8 7.1-3.1 9.8-.3 1.4-2.1 2-2 3.5.1.3.5.5.8.6 1.6-.2 2.7-1.5 3.7-2.9.4-1 .9-2.2 1.3-3.1 1.5-3.3 2.1-6.6 2.8-9.7.1-2.2 1-3 1.3-5.1.1-.4 0-.8.3-1.2.4-.9.5-1.8.8-2.4.2-.5.1-.7.3-1.1l-.1-.1c.2-.7.5-1.8.7-2.6.5-1.5.6-3 1.1-4.4-.1-1.4.5-2.8.4-4.2.8-1.2 1.3-2.5 1.3-4zm-61.7-24.5c.6-.7.3-1.4 0-2.1-.2-.6-.9-.4-1.4-.5-.6 0-1.2.2-1.6.6-.7.1-1 1.1-1.6 1.4-.3 1.1-1.4 1.3-1.6 2.3-.6.5-1.1 1.3-1.5 2.1-1.2.8-1.4 2.4-2.4 3.2-.5.8-.7 1.8-1.3 2.5-.3.6-.4 1.1-.5 1.8-.7 1.1-1.2 2.3-1.6 3.6-.8 1.3-.3 2.7-1.3 3.9.5 1.2-.8 2.3-.5 3.5-.5 1.9-.5 4.3-.8 6.4.5 1.4-.9 2.5-.4 3.6-.5 1 .2 2.1 0 3-.3.4.1.8-.1 1.1.1 1.2-.6 2.5 0 3.7 0 1.2.6 2.9.3 4.3.6 1.3-.1 2.7.6 4-.4.8.6 1.3-.2 2-.3 0-.5-.5-.8-.6-.5-1.2-1.7-1.7-2.3-2.8-1.4-2.7-3-5.5-4.3-8.2-.8-.8-1-2-1.4-2.8-.4-1.4-1.1-2.8-1.5-4.2 0-1.6-1.1-3.1-1.4-4.7-.5-1.1-.3-2.3-.7-3.5 0-1.3.2-3.1.3-4.3-.4-1.8.5-2.8.5-4.5.4-1.1.9-2.3 1-3.6.8-1.2 1.3-2.3 1.7-3.7 2.4-2.3 4.5-5 6.8-7.3.9-.4 1.3-1.7 2.3-1.9 1.6-2.3 4-3.2 5.9-5 1 0 1.3-1.1 2.1-1.5 1.3-.8 2.7-1.6 4.1-2.3.2-.7.6-1.4.7-2.2 0-.3-.3-.5-.7-.4-.7.6-1.8.3-2.2 1.2-.6.5-1.6.7-2 1.4-1.3.8-2.6 1.5-3.8 2.5-.5.4-1 1-1.6 1.2-1.5 1.4-3.2 2.9-4.6 4-.4.7-1.1 1.2-1.6 1.9-.6.1-.9.7-1.3 1.1-.9.2-1.1 1.3-1.6 2-.5.3-1 .6-1.1 1.2-.5 1-1.4 1.6-2.1 2.4-.5 1.1-1.9 1.2-2.2 2.3-1.6.9-1.4 2.9-2.7 3.9-.1.8-.8 1.1-1 1.8-.7.3-.8 1.1-1.2 1.7-.4.3-.6.8-.8 1.3-.5.2-.5.6-.8 1-.1.9-1 1.3-1 2.1-.6.9-1.1 1.8-1.7 2.7-.2.2.1.5-.3.7 0 .7-.5 1.2-.8 1.7-.1.6-.6 1.2-.8 1.8-.7 1.2-.8 2.8-1.9 3.8-.5 1.8-.6 3.7-1.9 5.2.3.6-.2 1 0 1.6-.5 1-.4 2.3-.5 3.3.3.5-.5.8-.2 1.4-.3.6.4 1.4.1 2.1.4 1.3.2 3.2 0 4.5.5.4.5 1.1.7 1.6-.1 1 .3 2 .3 3 .4.7-.4 1.4-.1 2.2.1.6.7.9 1.2 1.1.4.4.4 1 .5 1.5 0 .5.5.6.9.5.3 1.3 1.1 2.3 1.9 3.2.6.2 1 .7 1.6 1.1 1.1.5 2.1 1.6 3.3 1.5.9.2 1.8 0 2.6-.3.5-.1.5-.9 1-.8.8-1.1 1.6-2.1 1.9-3.4.2-.6.3-1.5.6-2.3-.1-1.8.3-3.2.3-5-.1-1.2-.5-2.1-.3-3.2-.5-1.8.2-3.1-.4-4.6-.2-.3-.3-1.2-.8-1-.3.2-.3.6-.3.9-.5 1.2-.3 2.6 0 3.9-.5 1.2-.4 2.3-.1 3.5-.5 2-.1 4.1-.8 6.2-.7.7-.3 1.9-1 2.7-.3.4-.8.5-1.2.3-.6.2-1.7.3-2.5-.2-1.8-1.4-3.3-2.9-4.6-4.7-.4-.7-.3-1.4-.6-2.1-.2-.2-.3-.4-.2-.6-.3-.9-.4-2.3-.4-3.2.2-1-.2-1.9-.4-2.9.2-.6-.5-1.1-.4-1.6l.1-.1-.1-.1c.1-.6 0-1.1 0-1.6.6-1.2-.3-2.3.3-3.4.1 0 .3.2.4 0 0-.2.2-1.1-.2-1.3-.2-.3.3-.3.3-.5.2-1.1 0-2.3.2-3.4-.1-1.8.8-3.4 1.3-4.9.7-1.3 1-2.7 2-4 .3-1.4 1.1-2.4 1.8-3.6.4-.8 1-1.6 1.5-2.3.4-1.3 1.5-2.2 2.3-3.4.1-.2.4 0 .5.2.2 1.1 0 2.2.5 3.3-.1.7 0 1.1-.1 1.7.2 1.6 0 3 .1 4.6-.1.4-.2 1-.2 1.3.2.8.2 1.6.3 2.5l.3.4c.5.2 1-.1 1.2-.5.7 0 .5 1 .8 1.4.5 2.4 1.6 3.8 2.4 6.2.4.7.5 1.7 1.3 2.3 0 1.2.9 1.5 1.3 2.6.3.3 0 1 .5 1.1 1 1.6 1.8 3.4 2.6 5.1 1.2 1.2 1.2 2.8 2.2 4 .1.2.8.1.5.7.6 1.1 1.1 2.3 1.6 3.4 1.2 1.4 1.8 3.1 2 5 .9 1.1.8 3.6 2.9 3.2.4-.1.6-.5.6-.9-.3-.7.3-1.8-.2-2.4-.2-1-.6-2.1-1-3.1-1.8-2.5-2.1-5.7-2.5-8.6-.8-2.8-.5-5.8-1.1-8.6.1-2.5-.8-5 .2-7.2-.1-2-.1-4.1.2-6.1 0-.5.3-1.3.3-1.9.5-4.3 1-8.1 2.5-12 .6-1.4.9-2.7 1.6-4.2.3-.5.8-1 1-1.6 1.3-2 2.2-4.1 4-5.8.7-1.2 1.8-2.2 2.7-3.2.3-1.2.8.2 1.6-.3"/><path class="st1" d="M432.1 40c.4-1.1 1.4-1.7 1.8-2.8 0-1.3 0-2.8-.2-4.1 0-1.2-.9-2.3-1.1-3.6-.6-.6-1-1.7-1.9-1.9-.3 0-.5.3-.5.7l1.3 2.8c.3 2 .5 4.5-.1 6.3-.5.9-1.6.9-1.9 1.8-.6.3-.9.9-1.6 1.2-1.1.2-1.9.2-3 .2-.9 0-1.4-.9-1.7-1.6-.5-2.2.4-4.5 2.1-6.3 1.4-.5 2.1-2.2 3.7-2 .4 0 .7-.3.8-.7-.3-.3-.6-.9-1.1-.9-.6.2-1.6.1-2.1.2-.9.6-1.8 1.3-2.7 2-.4.6-.9 1-1.5 1.5-.1 1.5-1.8 2.6-1.4 4.3-.4 1.3-.4 2.6.2 3.8 1 1 2.2 2 3.7 2 1.4.1 2.8-.2 4-.9 1-1.1 2.4-.8 3.2-2m-34.3 17.6l-.2-1.1c-.2-.3 0-.7-.3-1-.3-.4-.8-.5-1.1-.2-.5.7-.2 1.2-.3 2-.3.6.1 1.3 0 1.9.8 1.1-.1 2.7 1.1 3.6.2.1.4.1.6 0 1.1-1.6.1-3.6.2-5.2m-.7 6.8c0 .3.4.5.6.4.2 0 .2-.2.2-.4 0-.1-.8-.5-.8 0M429 80c-.4.1-1 .1-1.4-.3-.6-.1-1.1-.3-1.7.1-.2.4-.6.9-.5 1.3.9 1.8 3 .6 4.4 1.2 1 0 1.9-.5 2.8-.7.5-.3.2-.7.2-1.2-.6-1.5-2.7.1-3.8-.4m54.6 7.4c0 .3-.3.5-.6.5-.5 0-.8-.4-.8-.9s.3-.9.8-.9c.3 0 .6.2.7.5h.4c-.1-.5-.5-.8-1-.8-.7 0-1.2.5-1.2 1.2s.5 1.3 1.2 1.3c.5 0 .9-.3 1-.9h-.5zm-.7 1.7c1.1 0 2.1-.9 2.1-2.1 0-1.2-1-2-2.1-2s-2.1.9-2.1 2c0 1.2 1 2.1 2.1 2.1m-1.7-2.1c0-1 .7-1.7 1.7-1.7.9 0 1.7.7 1.7 1.7s-.7 1.7-1.7 1.7-1.7-.7-1.7-1.7m3.9 2.1h-.3l1.3-4.1h.3zm8.1-.1v-3.3l-1.1 3.3h-.5l-1.1-3.2V89h-.5v-3.9h.8l1.1 3.3 1.1-3.3h.7V89h-.5zm-6.8-3.5h1.3V89h.6v-3.5h1.3v-.4h-3.2z"/></svg>
