
<svg id="Layer_1" xmlns="http://www.w3.org/2000/svg" xmlns:xlink="http://www.w3.org/1999/xlink" viewBox="0 0 175.9 49.3"><style>.st0{clip-path:url(#SVGID_3_)}.st1{opacity:.1}.st1,.st2,.st3{fill:#f6921e}.st2{opacity:.2}.st3{opacity:.24}.st4{clip-path:url(#SVGID_6_)}.st5{opacity:.3;fill:#f6921e}.st6{fill:#000}.st7{fill:#fc0}</style><defs><path id="SVGID_1_" d="M6.5 40.8h17.8V28.3h-5.4s-2.4 0-.5-2l5.5-5.6s1.8-1.6 1.8.8v5.4h12.4V6.6c0-.8-.2-1.6-.5-2.3-.3-1-.9-1.9-1.7-2.7-2.5-2.3-6.4-2.1-8.7.4L1.8 30c-2.3 2.5-2.5 6.4-.1 8.9 0 0 1.9 1.9 4.8 1.9z"/></defs><radialGradient id="SVGID_2_" cx="-385.355" cy="-422.966" r="46.194" gradientTransform="translate(183.802 201.227) scale(.4275)" gradientUnits="userSpaceOnUse"><stop offset="0" stop-color="#fff100"/><stop offset=".305" stop-color="#ffec01"/><stop offset=".675" stop-color="#ffdd03"/><stop offset="1" stop-color="#ffca05"/></radialGradient><use xlink:href="#SVGID_1_" overflow="visible" fill="url(#SVGID_2_)"/><clipPath id="SVGID_3_"><use xlink:href="#SVGID_1_" overflow="visible"/></clipPath><g class="st0"><path class="st1" d="M18.9 28.3s5.2 3.2 5.5 9.8v-9.8h-5.5z"/><path class="st2" d="M24 20.7S37.3 8.2 27.1 1.9c0 0 3.6-3.9 8.4-1 0 0 3.1 1.9 3 6.3l-.3 19.7-12.7.2.1-5.8s.2-.6-.3-.7c-.6 0-1.3.1-1.3.1z"/><path class="st3" d="M38.2 9.7S38 27 29.7 27.1h8.5V9.7z"/><path class="st2" d="M25.3 40.8s-16.9-1.1-19.1-2c0 0-5.8-1.8-4.8-8.7 0 0-2.1 2.5-1.6 5 0 0 .7 5.7 6.7 5.8 6.4.1 18.8-.1 18.8-.1z"/></g><defs><path id="SVGID_4_" d="M40.2 28.3H25.7v14.6c.1 3.5 2.8 6.3 6.2 6.3 3.4 0 6.2-2.8 6.2-6.3v-2.2h2.1c3.6 0 6.4-2.8 6.4-6.3.1-3.3-2.8-6.1-6.4-6.1z"/></defs><linearGradient id="SVGID_5_" gradientUnits="userSpaceOnUse" x1="25.707" y1="38.799" x2="46.667" y2="38.799"><stop offset="0" stop-color="#fff100"/><stop offset=".127" stop-color="#ffe402"/><stop offset=".347" stop-color="#ffd604"/><stop offset=".606" stop-color="#ffcd05"/><stop offset="1" stop-color="#ffca05"/></linearGradient><use xlink:href="#SVGID_4_" overflow="visible" fill="url(#SVGID_5_)"/><clipPath id="SVGID_6_"><use xlink:href="#SVGID_4_" overflow="visible"/></clipPath><g class="st4"><path class="st2" d="M25.7 41.8s1.5 6.7 6.3 6.7 5.5-2 5.5-2-1.4 3-5.3 3c0 0-5 .1-6.2-5-.2-.8-.4-1.7-.3-2.7z"/><path class="st5" d="M30.5 28.3l10-.3s6.2.3 6.4 6.9c0 0-3.4-6.6-15.2-6.6h-1.2z"/></g><path class="st6" d="M54 31.6c-.4.5-.6.6-1 .6s-.9-.3-.9-.8c0-.3.2-.6.3-.8l4.8-6.8-4-5.7c-.2-.3-.3-.6-.3-.8 0-.5.4-.8.8-.8.3 0 .6.1 1 .6l3.6 5.3 3.6-5.3c.4-.5.6-.6 1-.6.5 0 .8.3.8.8 0 .2-.1.5-.3.8l-4 5.7 4.8 6.8c.1.2.3.5.3.8 0 .5-.4.8-.9.8-.3 0-.6-.1-1-.6l-4.4-6.3-4.2 6.3zm14-1.3h4.6c.5 0 .9.3.9.9s-.3.8-.9.8h-5.5c-.7 0-1-.5-1-1V17.7c0-.6.3-1 1-1h5.5c.5 0 .9.3.9.9 0 .6-.4.9-.9.9H68v5h4.2c.5 0 .9.3.9.9 0 .6-.4.9-.9.9H68v5zm9.6.8c0 .6-.4 1-1 1s-1-.4-1-1V17.7c0-.6.3-1 1-1h3.5c2.4 0 4.7 1.6 4.7 4.2 0 3.1-1.9 4.3-4.2 4.4h-.8l4.9 5.4c.3.3.4.5.4.9s-.4.7-.9.7c-.4 0-.6-.2-.9-.4l-5.9-6.5v5.7zm0-7.4h2.6c2 0 2.9-.8 2.9-2.8 0-1.4-1.1-2.6-2.9-2.6h-2.6v5.4zm15.5 6.8c2.3 0 3.3-1.4 4.1-1.4.5 0 .8.3.8.9 0 1-2.2 2.1-4.9 2.1-4.5 0-6.8-3.8-6.8-7.8s2.3-7.8 6.9-7.8c2.7 0 4.5 1.5 4.5 2.3 0 .5-.3.9-.8.9-.9 0-1.3-1.5-3.7-1.5-3.4 0-4.8 3.2-4.8 6.2 0 2.9 1.5 6.1 4.7 6.1zm8.6.6c0 .6-.4 1-1 1s-1-.4-1-1V17.5c0-.6.4-1 1-1s1 .4 1 1v13.6zm10.2-12.8c0 .5-.3.8-.8.8-.8 0-1.1-1-3-1-1.4 0-2.4.9-2.4 2.2 0 3.4 7.3 1.8 7.3 7 0 2.6-1.9 4.9-5.2 4.9-2 0-4.3-.8-4.3-1.9 0-.5.3-1 .8-1 .6 0 1.6 1.2 3.5 1.2 2 0 3.2-1.4 3.2-3.1 0-3.7-7.3-1.9-7.3-6.9 0-1.8 1.7-4 4.5-4 1.8 0 3.7.8 3.7 1.8zm4.7 12h4.6c.5 0 .9.3.9.9s-.4.9-.9.9h-5.5c-.7 0-1-.5-1-1V17.7c0-.6.3-1 1-1h5.5c.5 0 .9.3.9.9 0 .6-.4.9-.9.9h-4.6v5h4.2c.5 0 .9.3.9.9 0 .6-.4.9-.9.9h-4.2v5z"/><path class="st7" d="M125.6 28.6c-1.1 0-1.5-.7-1.5-1.3 0-.5.2-.7.3-1l4.8-8.8c.5-.9 1.1-1.3 2.2-1.3 1.3 0 2.5.8 2.5 2.8v6.6h.4c.8 0 1.5.6 1.5 1.4 0 .9-.7 1.4-1.5 1.4h-.4v1.8c0 1.1-.5 1.7-1.6 1.7s-1.6-.5-1.6-1.7v-1.8h-5.1zm5.2-8.9l-3 6h3v-6z"/><path class="st6" d="M140.6 30.3h4.1c.5 0 .9.3.9.9s-.4.9-.9.9h-5c-.7 0-1-.5-1-1V17.5c0-.6.4-1 1-1s1 .4 1 1v12.8zm8.5 0h4.6c.5 0 .9.3.9.9s-.4.9-.9.9h-5.5c-.7 0-1-.5-1-1V17.7c0-.6.3-1 1-1h5.5c.5 0 .9.3.9.9 0 .6-.4.9-.9.9h-4.6v5h4.2c.5 0 .9.3.9.9 0 .6-.4.9-.9.9h-4.2v5zm15.3-12c0 .5-.3.8-.8.8-.8 0-1.1-1-3-1-1.4 0-2.4.9-2.4 2.2 0 3.4 7.3 1.8 7.3 7 0 2.6-1.9 4.9-5.2 4.9-2 0-4.3-.8-4.3-1.9 0-.5.3-1 .8-1 .7 0 1.6 1.2 3.5 1.2 2 0 3.2-1.4 3.2-3.1 0-3.7-7.3-1.9-7.3-6.9 0-1.8 1.7-4 4.5-4 1.9 0 3.7.8 3.7 1.8zm10.5 0c0 .5-.3.8-.8.8-.8 0-1.1-1-3-1-1.4 0-2.4.9-2.4 2.2 0 3.4 7.3 1.8 7.3 7 0 2.6-1.9 4.9-5.2 4.9-2 0-4.3-.8-4.3-1.9 0-.5.3-1 .8-1 .6 0 1.6 1.2 3.5 1.2 2 0 3.2-1.4 3.2-3.1 0-3.7-7.3-1.9-7.3-6.9 0-1.8 1.7-4 4.5-4 1.8 0 3.7.8 3.7 1.8z"/></svg>
